<mxfile modified="2024-07-25T10:46:05.688Z" host="app.diagrams.net" agent="Mozilla/5.0 (Windows NT 10.0; Win64; x64) AppleWebKit/537.36 (KHTML, like Gecko) Chrome/123.0.0.0 Safari/537.36" etag="0mbJkklzu6IEKmGRJE6N" version="24.7.1" type="device">
  <diagram id="Ht1M8jgEwFfnCIfOTk4-" name="Page-1">
    <mxGraphModel dx="1035" dy="622" grid="1" gridSize="10" guides="1" tooltips="1" connect="1" arrows="1" fold="1" page="1" pageScale="1" pageWidth="1169" pageHeight="827" math="0" shadow="0">
      <root>
        <mxCell id="0" />
        <mxCell id="1" parent="0" />
        <mxCell id="RUJLnZNp0bxawVdTitDv-4" value="VPC" style="points=[[0,0],[0.25,0],[0.5,0],[0.75,0],[1,0],[1,0.25],[1,0.5],[1,0.75],[1,1],[0.75,1],[0.5,1],[0.25,1],[0,1],[0,0.75],[0,0.5],[0,0.25]];outlineConnect=0;gradientColor=none;html=1;whiteSpace=wrap;fontSize=12;fontStyle=0;container=1;pointerEvents=0;collapsible=0;recursiveResize=0;shape=mxgraph.aws4.group;grIcon=mxgraph.aws4.group_vpc2;strokeColor=#8C4FFF;fillColor=none;verticalAlign=top;align=left;spacingLeft=30;fontColor=#AAB7B8;dashed=1;strokeWidth=2;" vertex="1" parent="1">
          <mxGeometry x="360" y="160" width="640" height="380" as="geometry" />
        </mxCell>
        <mxCell id="RUJLnZNp0bxawVdTitDv-8" value="" style="outlineConnect=0;dashed=0;verticalLabelPosition=bottom;verticalAlign=top;align=center;html=1;shape=mxgraph.aws3.virtual_private_cloud;fillColor=#F58534;gradientColor=none;" vertex="1" parent="RUJLnZNp0bxawVdTitDv-4">
          <mxGeometry x="-10" y="-20" width="79.5" height="54" as="geometry" />
        </mxCell>
        <mxCell id="RUJLnZNp0bxawVdTitDv-11" value="Public subnet" style="points=[[0,0],[0.25,0],[0.5,0],[0.75,0],[1,0],[1,0.25],[1,0.5],[1,0.75],[1,1],[0.75,1],[0.5,1],[0.25,1],[0,1],[0,0.75],[0,0.5],[0,0.25]];outlineConnect=0;gradientColor=none;html=1;whiteSpace=wrap;fontSize=12;fontStyle=0;container=1;pointerEvents=0;collapsible=0;recursiveResize=0;shape=mxgraph.aws4.group;grIcon=mxgraph.aws4.group_security_group;grStroke=0;strokeColor=#7AA116;fillColor=#F2F6E8;verticalAlign=top;align=left;spacingLeft=30;fontColor=#248814;dashed=1;" vertex="1" parent="RUJLnZNp0bxawVdTitDv-4">
          <mxGeometry x="180" y="120" width="150" height="240" as="geometry" />
        </mxCell>
        <mxCell id="RUJLnZNp0bxawVdTitDv-13" value="" style="sketch=0;points=[[0,0,0],[0.25,0,0],[0.5,0,0],[0.75,0,0],[1,0,0],[0,1,0],[0.25,1,0],[0.5,1,0],[0.75,1,0],[1,1,0],[0,0.25,0],[0,0.5,0],[0,0.75,0],[1,0.25,0],[1,0.5,0],[1,0.75,0]];outlineConnect=0;fontColor=#232F3E;fillColor=#ED7100;strokeColor=#ffffff;dashed=0;verticalLabelPosition=bottom;verticalAlign=top;align=center;html=1;fontSize=12;fontStyle=0;aspect=fixed;shape=mxgraph.aws4.resourceIcon;resIcon=mxgraph.aws4.ecs_anywhere;" vertex="1" parent="RUJLnZNp0bxawVdTitDv-11">
          <mxGeometry x="20" y="90" width="30" height="30" as="geometry" />
        </mxCell>
        <mxCell id="RUJLnZNp0bxawVdTitDv-14" value="" style="rounded=1;whiteSpace=wrap;html=1;fillColor=none;dashed=1;" vertex="1" parent="RUJLnZNp0bxawVdTitDv-11">
          <mxGeometry x="15" y="120" width="125" height="60" as="geometry" />
        </mxCell>
        <mxCell id="RUJLnZNp0bxawVdTitDv-15" value="" style="sketch=0;outlineConnect=0;fontColor=#232F3E;gradientColor=none;fillColor=#ED7100;strokeColor=none;dashed=0;verticalLabelPosition=bottom;verticalAlign=top;align=center;html=1;fontSize=12;fontStyle=0;aspect=fixed;pointerEvents=1;shape=mxgraph.aws4.container_3;" vertex="1" parent="RUJLnZNp0bxawVdTitDv-11">
          <mxGeometry x="30" y="140" width="30.97" height="20" as="geometry" />
        </mxCell>
        <mxCell id="RUJLnZNp0bxawVdTitDv-26" value="" style="sketch=0;points=[[0,0,0],[0.25,0,0],[0.5,0,0],[0.75,0,0],[1,0,0],[0,1,0],[0.25,1,0],[0.5,1,0],[0.75,1,0],[1,1,0],[0,0.25,0],[0,0.5,0],[0,0.75,0],[1,0.25,0],[1,0.5,0],[1,0.75,0]];outlineConnect=0;fontColor=#232F3E;fillColor=#ED7100;strokeColor=#ffffff;dashed=0;verticalLabelPosition=bottom;verticalAlign=top;align=center;html=1;fontSize=12;fontStyle=0;aspect=fixed;shape=mxgraph.aws4.resourceIcon;resIcon=mxgraph.aws4.ec2;" vertex="1" parent="RUJLnZNp0bxawVdTitDv-11">
          <mxGeometry x="20" y="30" width="50" height="50" as="geometry" />
        </mxCell>
        <mxCell id="RUJLnZNp0bxawVdTitDv-27" value="&lt;b style=&quot;&quot;&gt;&lt;font style=&quot;font-size: 10px;&quot;&gt;EC-2&lt;/font&gt;&lt;/b&gt;" style="text;strokeColor=none;align=center;fillColor=none;html=1;verticalAlign=middle;whiteSpace=wrap;rounded=0;fontSize=11;" vertex="1" parent="RUJLnZNp0bxawVdTitDv-11">
          <mxGeometry x="60.97000000000003" y="30" width="60" height="30" as="geometry" />
        </mxCell>
        <mxCell id="RUJLnZNp0bxawVdTitDv-28" value="&lt;b&gt;&lt;font style=&quot;font-size: 10px;&quot;&gt;Cluster&lt;/font&gt;&lt;/b&gt;" style="text;strokeColor=none;align=center;fillColor=none;html=1;verticalAlign=middle;whiteSpace=wrap;rounded=0;" vertex="1" parent="RUJLnZNp0bxawVdTitDv-11">
          <mxGeometry x="55.48" y="90" width="39.03" height="30" as="geometry" />
        </mxCell>
        <mxCell id="RUJLnZNp0bxawVdTitDv-29" value="&lt;b&gt;&lt;font style=&quot;font-size: 10px;&quot;&gt;Phpadmin Container&lt;/font&gt;&lt;/b&gt;" style="text;strokeColor=none;align=center;fillColor=none;html=1;verticalAlign=middle;whiteSpace=wrap;rounded=0;" vertex="1" parent="RUJLnZNp0bxawVdTitDv-11">
          <mxGeometry x="20.479999999999997" y="152" width="114.03" height="30" as="geometry" />
        </mxCell>
        <mxCell id="RUJLnZNp0bxawVdTitDv-12" value="Private subnet" style="points=[[0,0],[0.25,0],[0.5,0],[0.75,0],[1,0],[1,0.25],[1,0.5],[1,0.75],[1,1],[0.75,1],[0.5,1],[0.25,1],[0,1],[0,0.75],[0,0.5],[0,0.25]];outlineConnect=0;gradientColor=none;html=1;whiteSpace=wrap;fontSize=12;fontStyle=0;container=1;pointerEvents=0;collapsible=0;recursiveResize=0;shape=mxgraph.aws4.group;grIcon=mxgraph.aws4.group_security_group;grStroke=0;strokeColor=#00a85a;fillColor=#E6F6F7;verticalAlign=top;align=left;spacingLeft=30;fontColor=#147EBA;dashed=1;strokeWidth=10;perimeterSpacing=5;" vertex="1" parent="RUJLnZNp0bxawVdTitDv-4">
          <mxGeometry x="460" y="120" width="140" height="240" as="geometry" />
        </mxCell>
        <mxCell id="RUJLnZNp0bxawVdTitDv-16" value="" style="sketch=0;outlineConnect=0;fontColor=#232F3E;gradientColor=none;fillColor=#C925D1;strokeColor=none;dashed=0;verticalLabelPosition=bottom;verticalAlign=top;align=center;html=1;fontSize=12;fontStyle=0;aspect=fixed;pointerEvents=1;shape=mxgraph.aws4.rds_mysql_instance;" vertex="1" parent="RUJLnZNp0bxawVdTitDv-12">
          <mxGeometry x="50" y="114" width="40" height="40" as="geometry" />
        </mxCell>
        <mxCell id="RUJLnZNp0bxawVdTitDv-30" value="&lt;b style=&quot;&quot;&gt;&lt;font style=&quot;font-size: 10px;&quot;&gt;RDS&lt;/font&gt;&lt;/b&gt;" style="text;strokeColor=none;align=center;fillColor=none;html=1;verticalAlign=middle;whiteSpace=wrap;rounded=0;fontSize=11;" vertex="1" parent="RUJLnZNp0bxawVdTitDv-12">
          <mxGeometry x="40" y="145" width="60" height="30" as="geometry" />
        </mxCell>
        <mxCell id="RUJLnZNp0bxawVdTitDv-19" value="" style="sketch=0;outlineConnect=0;fontColor=#232F3E;gradientColor=none;fillColor=#8C4FFF;strokeColor=none;dashed=0;verticalLabelPosition=bottom;verticalAlign=top;align=center;html=1;fontSize=12;fontStyle=0;aspect=fixed;pointerEvents=1;shape=mxgraph.aws4.router;" vertex="1" parent="RUJLnZNp0bxawVdTitDv-4">
          <mxGeometry x="-30" y="180" width="60" height="60" as="geometry" />
        </mxCell>
        <mxCell id="RUJLnZNp0bxawVdTitDv-23" style="edgeStyle=orthogonalEdgeStyle;rounded=0;orthogonalLoop=1;jettySize=auto;html=1;entryX=-0.023;entryY=0.374;entryDx=0;entryDy=0;entryPerimeter=0;strokeWidth=3;" edge="1" parent="RUJLnZNp0bxawVdTitDv-4" source="RUJLnZNp0bxawVdTitDv-19" target="RUJLnZNp0bxawVdTitDv-11">
          <mxGeometry relative="1" as="geometry" />
        </mxCell>
        <mxCell id="RUJLnZNp0bxawVdTitDv-25" style="edgeStyle=orthogonalEdgeStyle;rounded=0;orthogonalLoop=1;jettySize=auto;html=1;entryX=-0.007;entryY=0.62;entryDx=0;entryDy=0;entryPerimeter=0;strokeWidth=3;" edge="1" parent="RUJLnZNp0bxawVdTitDv-4" source="RUJLnZNp0bxawVdTitDv-14" target="RUJLnZNp0bxawVdTitDv-12">
          <mxGeometry relative="1" as="geometry">
            <Array as="points">
              <mxPoint x="454" y="270" />
              <mxPoint x="454" y="270" />
            </Array>
          </mxGeometry>
        </mxCell>
        <mxCell id="RUJLnZNp0bxawVdTitDv-31" value="&lt;span style=&quot;font-size: 10px;&quot;&gt;&lt;b&gt;Internet Gateway&lt;/b&gt;&lt;/span&gt;" style="text;strokeColor=none;align=center;fillColor=none;html=1;verticalAlign=middle;whiteSpace=wrap;rounded=0;fontSize=11;" vertex="1" parent="RUJLnZNp0bxawVdTitDv-4">
          <mxGeometry x="-55" y="160" width="110" height="30" as="geometry" />
        </mxCell>
        <mxCell id="RUJLnZNp0bxawVdTitDv-20" value="" style="points=[[0.35,0,0],[0.98,0.51,0],[1,0.71,0],[0.67,1,0],[0,0.795,0],[0,0.65,0]];verticalLabelPosition=bottom;sketch=0;html=1;verticalAlign=top;aspect=fixed;align=center;pointerEvents=1;shape=mxgraph.cisco19.user;fillColor=#005073;strokeColor=none;" vertex="1" parent="1">
          <mxGeometry x="120" y="330" width="70" height="70" as="geometry" />
        </mxCell>
        <mxCell id="RUJLnZNp0bxawVdTitDv-21" style="edgeStyle=orthogonalEdgeStyle;rounded=0;orthogonalLoop=1;jettySize=auto;html=1;entryX=-0.117;entryY=0.59;entryDx=0;entryDy=0;entryPerimeter=0;strokeWidth=3;strokeColor=#c2af38;exitX=0.826;exitY=0.569;exitDx=0;exitDy=0;exitPerimeter=0;" edge="1" parent="1">
          <mxGeometry relative="1" as="geometry">
            <mxPoint x="190.02000000000004" y="374.63000000000005" as="sourcePoint" />
            <mxPoint x="335.18" y="370" as="targetPoint" />
            <Array as="points">
              <mxPoint x="190.2" y="369.8" />
            </Array>
          </mxGeometry>
        </mxCell>
        <mxCell id="RUJLnZNp0bxawVdTitDv-32" value="&lt;span style=&quot;font-size: 10px;&quot;&gt;&lt;b&gt;User&lt;/b&gt;&lt;/span&gt;" style="text;strokeColor=none;align=center;fillColor=none;html=1;verticalAlign=middle;whiteSpace=wrap;rounded=0;fontSize=11;" vertex="1" parent="1">
          <mxGeometry x="90" y="391" width="110" height="30" as="geometry" />
        </mxCell>
      </root>
    </mxGraphModel>
  </diagram>
</mxfile>
